<?xml version="1.0" standalone="no"?><!DOCTYPE svg PUBLIC "-//W3C//DTD SVG 1.1//EN" "http://www.w3.org/Graphics/SVG/1.1/DTD/svg11.dtd"><svg t="1738250290848" class="icon" viewBox="0 0 1024 1024" version="1.1" xmlns="http://www.w3.org/2000/svg" p-id="6751" xmlns:xlink="http://www.w3.org/1999/xlink" width="200" height="200"><path d="M30.118 512a451.765 451.765 0 1 0 903.53 0 451.765 451.765 0 1 0-903.53 0z" fill="#77D450" p-id="6752"></path><path d="M747.43 146.492A451.162 451.162 0 0 1 933.647 512c0 249.495-202.27 451.765-451.765 451.765a454.715 454.715 0 0 1-72.643-5.813c221.274-107.34 373.82-334.125 373.82-596.54 0-73.186-11.867-143.601-33.792-209.438z" fill="#5DCE36" p-id="6753"></path><path d="M466.824 210.824Q512 210.824 512 256v271.059q0 45.176-45.176 45.176-45.177 0-45.177-45.176V256q0-45.176 45.177-45.176z" fill="#FBFBFB" p-id="6754"></path><path d="M642.35 687.526a45.176 45.176 0 0 1-63.85 0L440.049 549.105l63.88-63.88 138.42 138.421a45.176 45.176 0 0 1 0 63.88z" fill="#FBFBFB" p-id="6755"></path></svg>