<?xml version="1.0" standalone="no"?><!DOCTYPE svg PUBLIC "-//W3C//DTD SVG 1.1//EN" "http://www.w3.org/Graphics/SVG/1.1/DTD/svg11.dtd"><svg t="1738250107536" class="icon" viewBox="0 0 1024 1024" version="1.1" xmlns="http://www.w3.org/2000/svg" p-id="1624" xmlns:xlink="http://www.w3.org/1999/xlink" width="200" height="200"><path d="M957.52 325.05l-82.88 448.44-13.14 69.44a97.25 97.25 0 0 1-12.25 32 101.71 101.71 0 0 1-87.66 50.62h-597c-65.85 0-113.93-61.82-98.25-126.19l141.86-567.6 7.47-29.86 2.68-10.76a101 101 0 0 1 97.94-76.45H784a50.59 50.59 0 0 1 49.61 60.5L724.14 722.56A63.35 63.35 0 0 1 662 773.49H187c-31.53 0-56.58 29.13-49.59 61.59 5.11 23.66 27.29 39.81 51.5 39.81h564.62a50.48 50.48 0 0 0 49.58-40.62l12.24-60.78 108.72-543.71a100.74 100.74 0 0 1 33.45 95.27z" fill="#323E87" p-id="1625"></path><path d="M493.62 481c-10.14 27.86-42.44 50.94-71.91 50.94s-45-23.08-34.82-50.94 42.3-50.55 71.76-50.55 45.11 22.66 34.97 50.55z" fill="#F39800" p-id="1626"></path><path d="M610.92 424.51l-9.26-39.13c-1.49-5.52-7.46-7.91-14.33-5.52l-21.65 7.91c-4.93 1.65-9.71 0.9-12.4-1.94a89.25 89.25 0 0 0-24.94-16.73c-3.58-1.93-5.52-5.52-4.63-10.3l4.78-18.37c1.49-6.27-2.24-11.49-9-11.49h-47.74c-6.87 0-14.34 5.22-17.33 11.49l-8.66 18.37a21.88 21.88 0 0 1-12.24 10.3 207.27 207.27 0 0 0-37 16.73c-5.07 2.84-10.15 3.59-13.88 1.94l-16-7.47c-4.93-2.83-12.55-0.44-18.22 5.08l-37.63 39.13c-5.68 5.52-6.72 12.69-2.54 16.72L319.88 452c2.84 2.69 3.13 7.47 0.45 12.7a153.64 153.64 0 0 0-7.17 16.3 140.06 140.06 0 0 0-4.78 16.73c-1.05 4.78-4.78 9.55-9.71 12.39l-19.41 10.75c-7 3.89-11.2 11-9.71 16.73l9.11 39.27c1.79 5.23 7.62 7.62 14.49 5.23l21.65-7.92c4.93-1.64 9.41-0.89 12.39 2a80 80 0 0 0 24.64 16.72c4 1.94 5.68 6 4.78 10.75L352 621.92c-1.49 6.27 2.24 11.05 9.11 11.05h47.79c6.72 0 14-4.78 17.17-11.05l8.81-18.82a23.58 23.58 0 0 1 12.54-10.3c12.1-4 24.65-10 36.74-16.72 4.48-2.84 10-3.59 13.74-2l15.83 7.92c5.22 2.39 12.84 0 18.22-5.23l37.93-39.27c5.52-5.68 6.57-12.84 2.39-16.73l-11.5-10.75c-3-2.84-3.29-7.61-0.75-12.39a161.88 161.88 0 0 0 7.3-16.63 169.43 169.43 0 0 0 4.78-16.27 19.27 19.27 0 0 1 9.7-12.7l19.41-10.75c7.17-4.08 11.35-11.28 9.71-16.77zM518.34 481c-14.94 41-61.97 74-104.98 74s-66-33-51.22-74.07c14.78-40.61 62.12-74.06 105.13-74.06s65.85 33.47 51.07 74.13zM385.28 201.86l-7.9 29.86H250.89l7.9-29.86h126.49zM374.08 246.66l-7.9 29.86H239.69l7.9-29.86h126.49zM359.15 291.45l-7.9 29.87h-126.5l7.91-29.87h126.49z" fill="#F39800" p-id="1627"></path><path d="M957.52 325.05L874.9 773.57 861.73 843c-2 11.65-6.59 22.3-12.17 31.92a101.77 101.77 0 0 1-87.67 50.68h-597a101.31 101.31 0 0 1-30.89-4.55l22.8-46.12 10.14-5.07a49.46 49.46 0 0 0 22.3 5.07h564.54a50.57 50.57 0 0 0 49.67-40.54l12.16-60.82 108.46-543.79c26.35 22.8 40.54 58.28 33.45 95.27z" fill="#32386D" p-id="1628"></path></svg>