<?xml version="1.0" standalone="no"?><!DOCTYPE svg PUBLIC "-//W3C//DTD SVG 1.1//EN" "http://www.w3.org/Graphics/SVG/1.1/DTD/svg11.dtd"><svg t="1738250228929" class="icon" viewBox="0 0 1024 1024" version="1.1" xmlns="http://www.w3.org/2000/svg" p-id="4589" xmlns:xlink="http://www.w3.org/1999/xlink" width="200" height="200"><path d="M590.933333 601.6c27.733333-27.733333 70.4-27.733333 96 0l162.133334 162.133333c27.733333 27.733333 27.733333 70.4 0 96-27.733333 27.733333-70.4 27.733333-96 0l-162.133334-162.133333c-27.733333-25.6-27.733333-70.4 0-96z" fill="#FF354A" p-id="4590"></path><path d="M497.066667 484.266667m-341.333334 0a341.333333 341.333333 0 1 0 682.666667 0 341.333333 341.333333 0 1 0-682.666667 0Z" fill="#2953FF" p-id="4591"></path><path d="M497.066667 484.266667m-160 0a160 160 0 1 0 320 0 160 160 0 1 0-320 0Z" fill="#FCCA1E" p-id="4592"></path></svg>